<svg width="26" height="30" viewBox="0 0 26 30" fill="none" xmlns="http://www.w3.org/2000/svg">
<path d="M12.5293 1V3.88233V1Z" fill="#444444"/>
<path d="M12.5293 1V3.88233" stroke="#444444" stroke-width="2" stroke-linecap="round" stroke-linejoin="round"/>
<path d="M12.5293 3.88232C7.75905 3.88232 3.88233 7.75905 3.88233 12.5293V21.1763C2.44116 21.1763 1 22.6174 1 24.0586H12.5293M12.5293 3.88232C17.2996 3.88232 21.1763 7.75905 21.1763 12.5293V21.1763C22.6174 21.1763 24.0586 22.6174 24.0586 24.0586H12.5293" fill="#444444"/>
<path d="M12.5293 3.88232C7.75905 3.88232 3.88233 7.75905 3.88233 12.5293V21.1763C2.44116 21.1763 1 22.6174 1 24.0586H12.5293H24.0586C24.0586 22.6174 22.6174 21.1763 21.1763 21.1763V12.5293C21.1763 7.75905 17.2996 3.88232 12.5293 3.88232Z" stroke="#444444" stroke-width="2" stroke-linecap="round" stroke-linejoin="round"/>
<rect x="10.2041" y="24.6765" width="5" height="1" fill="#444444"/>
<path d="M9.64746 25.4998C9.64746 27.085 10.9445 28.3821 12.5298 28.3821C14.1151 28.3821 15.4121 27.085 15.4121 25.4998" fill="#444444"/>
<path d="M9.64746 25.4998C9.64746 27.085 10.9445 28.3821 12.5298 28.3821C14.1151 28.3821 15.4121 27.085 15.4121 25.4998" stroke="#444444" stroke-width="2" stroke-linecap="round" stroke-linejoin="round"/>
</svg>
