<svg width="34" height="34" viewBox="0 0 34 34" fill="none" xmlns="http://www.w3.org/2000/svg">
<path d="M5.66699 9.91659V12.7499H28.3337V9.91659C28.3337 9.16514 28.0351 8.44447 27.5038 7.91312C26.9724 7.38176 26.2518 7.08325 25.5003 7.08325H8.50033C7.74888 7.08325 7.02821 7.38176 6.49686 7.91312C5.9655 8.44447 5.66699 9.16514 5.66699 9.91659Z" fill="#444444"/>
<path d="M22.667 7.08333H25.5003C26.2518 7.08333 26.9724 7.38184 27.5038 7.9132C28.0351 8.44455 28.3337 9.16522 28.3337 9.91667V12.75H5.66699V9.91667C5.66699 9.16522 5.9655 8.44455 6.49686 7.9132C7.02821 7.38184 7.74888 7.08333 8.50033 7.08333H11.3337M22.667 7.08333V4.25M22.667 7.08333H11.3337M11.3337 7.08333V4.25M5.66699 13.4583V26.9167C5.66699 27.6681 5.9655 28.3888 6.49686 28.9201C7.02821 29.4515 7.74888 29.75 8.50033 29.75H25.5003C26.2518 29.75 26.9724 29.4515 27.5038 28.9201C28.0351 28.3888 28.3337 27.6681 28.3337 26.9167V13.4583" stroke="#444444" stroke-width="2" stroke-linecap="round" stroke-linejoin="round"/>
</svg>
