<svg width="24" height="24" viewBox="0 0 24 24" fill="none" xmlns="http://www.w3.org/2000/svg">
<g clip-path="url(#clip0_1_144)">
<path fill-rule="evenodd" clip-rule="evenodd" d="M7.9399 13.0599C7.659 12.7787 7.50122 12.3974 7.50122 11.9999C7.50122 11.6024 7.659 11.2212 7.9399 10.9399L13.5959 5.2819C13.8773 5.00064 14.2589 4.84268 14.6568 4.84277C14.8538 4.84282 15.0488 4.88167 15.2308 4.9571C15.4128 5.03253 15.5781 5.14307 15.7174 5.2824C15.8567 5.42173 15.9671 5.58713 16.0425 5.76915C16.1178 5.95117 16.1566 6.14625 16.1565 6.34325C16.1565 6.54025 16.1176 6.73531 16.0422 6.9173C15.9668 7.09929 15.8562 7.26463 15.7169 7.4039L11.1219 11.9999L15.7179 16.5959C15.8612 16.7342 15.9756 16.8997 16.0543 17.0826C16.133 17.2656 16.1744 17.4624 16.1763 17.6616C16.1781 17.8607 16.1402 18.0583 16.0649 18.2427C15.9896 18.427 15.8783 18.5946 15.7375 18.7355C15.5967 18.8764 15.4293 18.9878 15.245 19.0633C15.0607 19.1389 14.8632 19.1769 14.664 19.1753C14.4648 19.1736 14.268 19.1323 14.085 19.0538C13.9019 18.9753 13.7363 18.8611 13.5979 18.7179L7.9379 13.0599H7.9399Z" fill="white"/>
</g>
<defs>
<clipPath id="clip0_1_144">
<rect width="24" height="24" fill="white"/>
</clipPath>
</defs>
</svg>
