<svg width="34" height="34" viewBox="0 0 34 34" fill="none" xmlns="http://www.w3.org/2000/svg">
<path d="M21.5725 4.18808C20.3105 2.82554 18.5478 2.0752 16.6022 2.0752C14.6463 2.0752 12.8777 2.821 11.6215 4.17511C10.3517 5.54415 9.73305 7.40476 9.87832 9.41389C10.1663 13.3777 13.1825 16.6021 16.6022 16.6021C20.0219 16.6021 23.033 13.3783 23.3254 9.41518C23.4727 7.42421 22.8501 5.56749 21.5725 4.18808ZM28.0162 31.129H5.18819C4.8894 31.1329 4.59349 31.0702 4.322 30.9453C4.05052 30.8204 3.81028 30.6366 3.61877 30.4072C3.19723 29.9033 3.02731 29.2152 3.15313 28.5194C3.70048 25.483 5.40869 22.9324 8.09358 21.1418C10.4788 19.5522 13.5003 18.6774 16.6022 18.6774C19.7041 18.6774 22.7256 19.5529 25.1108 21.1418C27.7957 22.9317 29.5039 25.4823 30.0513 28.5187C30.1771 29.2146 30.0072 29.9027 29.5856 30.4066C29.3942 30.6361 29.154 30.82 28.8825 30.945C28.611 31.07 28.3151 31.1328 28.0162 31.129Z" fill="#444444"/>
</svg>
