<svg width="66" height="66" viewBox="0 0 66 66" fill="none" xmlns="http://www.w3.org/2000/svg">
<circle cx="33" cy="33" r="33" fill="#1E1E1E"/>
<path d="M37.4599 20.1129C36.1979 18.7503 34.4352 18 32.4897 18C30.5337 18 28.7652 18.7458 27.509 20.0999C26.2392 21.469 25.6205 23.3296 25.7658 25.3387C26.0537 29.3025 29.07 32.5269 32.4897 32.5269C35.9093 32.5269 38.9204 29.3031 39.2129 25.34C39.3601 23.349 38.7375 21.4923 37.4599 20.1129ZM43.9037 47.0538H21.0756C20.7768 47.0577 20.4809 46.995 20.2095 46.8701C19.938 46.7452 19.6977 46.5614 19.5062 46.332C19.0847 45.8281 18.9148 45.1401 19.0406 44.4442C19.5879 41.4078 21.2961 38.8572 23.981 37.0666C26.3663 35.4771 29.3878 34.6022 32.4897 34.6022C35.5915 34.6022 38.613 35.4777 40.9983 37.0666C43.6832 38.8565 45.3914 41.4072 45.9387 44.4435C46.0645 45.1394 45.8946 45.8275 45.4731 46.3314C45.2816 46.5609 45.0414 46.7448 44.7699 46.8698C44.4985 46.9948 44.2025 47.0576 43.9037 47.0538Z" fill="#FFBE1B"/>
</svg>
