<svg width="24" height="24" viewBox="0 0 24 24" fill="none" xmlns="http://www.w3.org/2000/svg">
<g clip-path="url(#clip0_1_148)">
<path fill-rule="evenodd" clip-rule="evenodd" d="M16.0601 13.0599C16.341 12.7787 16.4988 12.3974 16.4988 11.9999C16.4988 11.6024 16.341 11.2212 16.0601 10.9399L10.4041 5.2819C10.1227 5.00064 9.7411 4.84268 9.34325 4.84277C9.14625 4.84282 8.95118 4.88167 8.7692 4.9571C8.58721 5.03253 8.42187 5.14307 8.2826 5.2824C8.14333 5.42173 8.03287 5.58713 7.95753 5.76915C7.88218 5.95117 7.84342 6.14625 7.84347 6.34325C7.84352 6.54025 7.88237 6.73531 7.9578 6.9173C8.03323 7.09929 8.14377 7.26463 8.2831 7.4039L12.8781 11.9999L8.2821 16.5959C8.13877 16.7342 8.02442 16.8997 7.94572 17.0826C7.86702 17.2656 7.82555 17.4624 7.82373 17.6616C7.8219 17.8607 7.85976 18.0583 7.9351 18.2427C8.01043 18.427 8.12173 18.5946 8.2625 18.7355C8.40328 18.8764 8.5707 18.9878 8.75501 19.0633C8.93932 19.1389 9.13682 19.1769 9.33599 19.1753C9.53516 19.1736 9.73201 19.1323 9.91505 19.0538C10.0981 18.9753 10.2637 18.8611 10.4021 18.7179L16.0621 13.0599H16.0601Z" fill="white"/>
</g>
<defs>
<clipPath id="clip0_1_148">
<rect width="24" height="24" fill="white" transform="matrix(-1 0 0 1 24 0)"/>
</clipPath>
</defs>
</svg>
