<svg width="34" height="34" viewBox="0 0 34 34" fill="none" xmlns="http://www.w3.org/2000/svg">
<path d="M30.634 19.6265C30.8981 19.8204 31.0951 20.0919 31.1974 20.4032C31.2997 20.7144 31.3022 21.0499 31.2046 21.3626C30.53 23.5154 29.3845 25.4909 27.8513 27.1458C27.6296 27.383 27.34 27.5458 27.0221 27.6118C26.7042 27.6778 26.3737 27.6438 26.0759 27.5145L23.9987 26.6029C23.7717 26.5018 23.5243 26.4553 23.2762 26.4669C23.0291 26.4823 22.789 26.555 22.5749 26.6794C22.3608 26.8031 22.1792 26.9758 22.0449 27.1835C21.9106 27.3911 21.8275 27.6276 21.8025 27.8736L21.5528 30.1367C21.5168 30.4589 21.3822 30.7621 21.1673 31.0048C20.9523 31.2475 20.6677 31.4178 20.3522 31.4925C18.1464 32.0184 15.8472 32.0184 13.6414 31.4925C13.3279 31.4173 13.045 31.2474 12.8312 31.0061C12.6174 30.7647 12.483 30.4634 12.4461 30.1431L12.1964 27.8842C12.1536 27.4992 11.9701 27.1436 11.6811 26.8855C11.4554 26.6864 11.178 26.5554 10.8809 26.5074C10.5838 26.4595 10.2792 26.4966 10.0024 26.6145L7.92519 27.5272C7.62821 27.6564 7.2986 27.6907 6.9814 27.6254C6.66419 27.5602 6.37486 27.3986 6.15294 27.1628C4.61722 25.5062 3.47023 23.528 2.79544 21.3722C2.6982 21.0598 2.7008 20.7249 2.80288 20.4141C2.90496 20.1033 3.10143 19.8321 3.36494 19.6382L5.19775 18.2835C5.39802 18.1366 5.56088 17.9447 5.67314 17.7232C5.7854 17.5017 5.8439 17.2568 5.8439 17.0085C5.8439 16.7601 5.7854 16.5153 5.67314 16.2938C5.56088 16.0723 5.39802 15.8803 5.19775 15.7335L3.36494 14.3809C3.10333 14.1877 2.90808 13.9181 2.80609 13.6092C2.7041 13.3004 2.70037 12.9675 2.79544 12.6565C3.46898 10.502 4.61578 8.52529 6.15187 6.87117C6.30062 6.71074 6.48125 6.58324 6.68312 6.49824C6.87976 6.41495 7.09114 6.37204 7.30469 6.37204C7.51824 6.37204 7.72961 6.41495 7.92625 6.49824L9.99494 7.40986C10.2225 7.50762 10.4698 7.55072 10.7171 7.53572C10.9643 7.52072 11.2046 7.44803 11.4187 7.32348C11.6328 7.19892 11.8147 7.02596 11.95 6.81845C12.0852 6.61094 12.17 6.37465 12.1975 6.12849L12.4482 3.87386C12.4844 3.54819 12.6214 3.24195 12.8401 2.99793C13.0588 2.75391 13.3482 2.5843 13.668 2.5128C14.7662 2.27081 15.8862 2.14193 17.0106 2.12817C18.1284 2.14092 19.2419 2.26949 20.3331 2.5128C20.6531 2.58468 20.9427 2.75485 21.1612 2.99948C21.3797 3.24411 21.5163 3.55095 21.5518 3.87705L21.8025 6.12955C21.8291 6.37534 21.9131 6.61142 22.0478 6.81871C22.1825 7.02601 22.3641 7.1987 22.5779 7.32282C22.7917 7.44694 23.0318 7.51902 23.2786 7.53321C23.5254 7.54741 23.7721 7.50334 23.9987 7.40455L26.0663 6.49399C26.3644 6.36378 26.6955 6.32922 27.0141 6.39506C27.3326 6.4609 27.6229 6.6239 27.8449 6.86161C29.381 8.51332 30.5273 10.4884 31.1993 12.6416C31.2959 12.9538 31.2929 13.2883 31.1906 13.5987C31.0884 13.9091 30.892 14.1799 30.6287 14.3735L28.8012 15.726C28.6001 15.8716 28.4363 16.0626 28.3233 16.2836C28.2102 16.5045 28.151 16.7491 28.1506 16.9973C28.1502 17.2455 28.2086 17.4903 28.3209 17.7116C28.4332 17.933 28.5964 18.1245 28.7969 18.2707L30.634 19.6265ZM17 21.25C18.1272 21.25 19.2082 20.8022 20.0052 20.0052C20.8022 19.2082 21.25 18.1272 21.25 17C21.25 15.8728 20.8022 14.7918 20.0052 13.9948C19.2082 13.1978 18.1272 12.75 17 12.75C15.8728 12.75 14.7918 13.1978 13.9948 13.9948C13.1978 14.7918 12.75 15.8728 12.75 17C12.75 18.1272 13.1978 19.2082 13.9948 20.0052C14.7918 20.8022 15.8728 21.25 17 21.25Z" fill="#444444"/>
</svg>
